<?xml version="1.0" standalone="no"?>
<!DOCTYPE svg PUBLIC "-//W3C//DTD SVG 1.1//EN" "http://www.w3.org/Graphics/SVG/1.1/DTD/svg11.dtd">
<svg version="1.1" xmlns="http://www.w3.org/2000/svg" viewBox="0 0 1474.973150512771 537.5" width="4424.919451538313" height="1612.5"><!-- svg-source:excalidraw --><metadata></metadata><defs><style class="style-fonts">
      @font-face { font-family: Excalifont; src: url(https://esm.sh/@excalidraw/excalidraw/dist/prod/fonts/Excalifont/Excalifont-Regular-a88b72a24fb54c9f94e3b5fdaa7481c9.woff2); }</style></defs><g stroke-linecap="round" transform="translate(10 10) rotate(0 678.75 258.75)"><path d="M32 0 C324.99 4.85, 619.93 4.66, 1325.5 0 M32 0 C421.76 -0.94, 811.59 -1.09, 1325.5 0 M1325.5 0 C1346.44 1.23, 1357.61 10.35, 1357.5 32 M1325.5 0 C1348.91 2.05, 1359.6 11.08, 1357.5 32 M1357.5 32 C1358.79 201.27, 1358.07 370.43, 1357.5 485.5 M1357.5 32 C1358.94 167.86, 1359.39 303.96, 1357.5 485.5 M1357.5 485.5 C1357.6 506.68, 1347.34 517.45, 1325.5 517.5 M1357.5 485.5 C1357.55 508.56, 1347.3 518.88, 1325.5 517.5 M1325.5 517.5 C834.63 518.12, 345.4 517.39, 32 517.5 M1325.5 517.5 C986.25 514.08, 647.48 514.16, 32 517.5 M32 517.5 C10.48 515.57, -1.16 507.11, 0 485.5 M32 517.5 C12.94 519.23, -1.35 507.95, 0 485.5 M0 485.5 C1.1 362.36, 1.32 238.99, 0 32 M0 485.5 C-0.49 334.11, -0.19 182.49, 0 32 M0 32 C-0.31 9.11, 9.58 1.27, 32 0 M0 32 C-0.76 12.26, 12.86 -1.01, 32 0" stroke="#1e1e1e" stroke-width="2" fill="none"></path></g><g transform="translate(553.7679595947266 15) rotate(0 134.98204040527344 22.5)"><text x="134.98204040527344" y="31.716" font-family="Excalifont, Xiaolai, Segoe UI Emoji" font-size="36px" fill="#1e1e1e" text-anchor="middle" style="white-space: pre;" direction="ltr" dominant-baseline="alphabetic">Play Next Level</text></g><g stroke-linecap="round" transform="translate(109.21428571428442 193.44047619047342) rotate(0 164.375 75)"><path d="M32 0 C86.36 0.87, 140.76 -0.06, 296.75 0 M32 0 C102.59 0.2, 174.37 -0.73, 296.75 0 M296.75 0 C318.15 0.49, 328.11 9.21, 328.75 32 M296.75 0 C319.2 1.09, 327.99 11.56, 328.75 32 M328.75 32 C327.87 53.84, 329.19 73.69, 328.75 118 M328.75 32 C329.08 59.6, 328.91 85.67, 328.75 118 M328.75 118 C329.73 138.58, 316.39 150.85, 296.75 150 M328.75 118 C330.47 137.24, 315.99 151.81, 296.75 150 M296.75 150 C216.09 150.58, 132.18 152.22, 32 150 M296.75 150 C240.14 151.45, 185.33 151.17, 32 150 M32 150 C10.64 150.35, -1.91 138.31, 0 118 M32 150 C10.11 149.56, 0.5 139.89, 0 118 M0 118 C0.09 93.83, -0.86 73.26, 0 32 M0 118 C0.31 82.92, -0.13 49.64, 0 32 M0 32 C0.49 12.18, 11.29 -0.9, 32 0 M0 32 C0.61 11.56, 11.05 -0.84, 32 0" stroke="#1e1e1e" stroke-width="2" fill="none"></path></g><g transform="translate(172.5552509852805 245.94047619047342) rotate(0 101.0340347290039 22.5)"><text x="101.0340347290039" y="31.716" font-family="Excalifont, Xiaolai, Segoe UI Emoji" font-size="36px" fill="#1e1e1e" text-anchor="middle" style="white-space: pre;" direction="ltr" dominant-baseline="alphabetic">Understand</text></g><g stroke-linecap="round" transform="translate(510.82142857142753 198.9761904761981) rotate(0 178.75 68.75)"><path d="M32 0 C94.64 0.7, 159.36 2.26, 325.5 0 M32 0 C91.71 -0.57, 150.83 -1.66, 325.5 0 M325.5 0 C348.06 1.06, 357.34 8.74, 357.5 32 M325.5 0 C348.15 1.38, 357.64 9.48, 357.5 32 M357.5 32 C356.63 54.93, 358.38 79.01, 357.5 105.5 M357.5 32 C357.59 56.63, 357.25 80.13, 357.5 105.5 M357.5 105.5 C357.45 125.11, 346.94 137.53, 325.5 137.5 M357.5 105.5 C356.49 125.85, 346.39 136.44, 325.5 137.5 M325.5 137.5 C231.46 139.17, 134.85 139.23, 32 137.5 M325.5 137.5 C237.2 138.93, 147.89 138.06, 32 137.5 M32 137.5 C9.43 136.9, 1.35 128.39, 0 105.5 M32 137.5 C10.68 139.18, -0.43 127.85, 0 105.5 M0 105.5 C1.08 79.65, 1.06 54.37, 0 32 M0 105.5 C0.23 86.47, -0.46 66.44, 0 32 M0 32 C-2 11.18, 10.43 0.95, 32 0 M0 32 C0.86 12.72, 9.17 -1.74, 32 0" stroke="#1e1e1e" stroke-width="2" fill="none"></path></g><g transform="translate(650.2234137398846 245.2261904761981) rotate(0 39.34801483154297 22.5)"><text x="39.34801483154297" y="31.716" font-family="Excalifont, Xiaolai, Segoe UI Emoji" font-size="36px" fill="#1e1e1e" text-anchor="middle" style="white-space: pre;" direction="ltr" dominant-baseline="alphabetic">Hack</text></g><g stroke-linecap="round" transform="translate(920.1785714285725 192.50000000001455) rotate(0 178.75 68.75)"><path d="M32 0 C94.83 2.29, 156.28 0.41, 325.5 0 M32 0 C123.96 -0.93, 216.68 -1.61, 325.5 0 M325.5 0 C346.56 -0.1, 358.88 12.66, 357.5 32 M325.5 0 C347.81 -0.41, 359.27 8.63, 357.5 32 M357.5 32 C355.23 48.49, 356.61 62.77, 357.5 105.5 M357.5 32 C357.4 58.97, 358.32 85.58, 357.5 105.5 M357.5 105.5 C356.94 128.44, 348.39 136.89, 325.5 137.5 M357.5 105.5 C355.23 127.83, 349.06 137.71, 325.5 137.5 M325.5 137.5 C236.02 136.86, 147.63 135.06, 32 137.5 M325.5 137.5 C213.06 137.95, 99.81 137.18, 32 137.5 M32 137.5 C11.34 136.24, 0.35 125.43, 0 105.5 M32 137.5 C8.72 137.16, 0.79 126.35, 0 105.5 M0 105.5 C-0.88 77.2, 1.57 51, 0 32 M0 105.5 C0.56 84.04, 0.42 62.89, 0 32 M0 32 C-1 11.31, 10.96 0.92, 32 0 M0 32 C0.36 8.72, 12.54 0.37, 32 0" stroke="#1e1e1e" stroke-width="2" fill="none"></path></g><g transform="translate(1053.7665536063068 238.75000000001455) rotate(0 45.162017822265625 22.5)"><text x="45.162017822265625" y="31.716" font-family="Excalifont, Xiaolai, Segoe UI Emoji" font-size="36px" fill="#1e1e1e" text-anchor="middle" style="white-space: pre;" direction="ltr" dominant-baseline="alphabetic">Solve</text></g><g stroke-linecap="round"><g transform="translate(302.98126188903007 175.65829801926157) rotate(0 175 -30.954149009630783)"><path d="M-0.2 0.62 C32.6 -12.14, 138.21 -78.33, 196.59 -76.22 C254.98 -74.11, 324.36 -1.65, 350.12 13.27 M-1.77 -0.1 C30.96 -12.73, 137.45 -77.39, 195.98 -74.98 C254.51 -72.58, 324.02 -0.52, 349.41 14.34" stroke="#1e1e1e" stroke-width="2" fill="none"></path></g><g transform="translate(302.98126188903007 175.65829801926157) rotate(0 175 -30.954149009630783)"><path d="M325.55 6.89 C333.3 10.09, 338.01 11.3, 349.41 14.34 M325.55 6.89 C331.4 9.16, 338.4 9.96, 349.41 14.34" stroke="#1e1e1e" stroke-width="2" fill="none"></path></g><g transform="translate(302.98126188903007 175.65829801926157) rotate(0 175 -30.954149009630783)"><path d="M335.92 -6.71 C340.8 0.29, 342.61 5.31, 349.41 14.34 M335.92 -6.71 C339.2 -0.94, 343.5 3.39, 349.41 14.34" stroke="#1e1e1e" stroke-width="2" fill="none"></path></g></g><mask></mask><g stroke-linecap="round"><g transform="translate(705.1785714285725 352.5) rotate(0 181.875 50)"><path d="M-0.56 1.02 C32.76 18.38, 138.74 103.72, 199.44 103.11 C260.14 102.51, 336.4 14.94, 363.62 -2.61 M1.34 0.5 C34.5 17.62, 137.96 101.62, 198.2 101.31 C258.44 101, 335.41 15.69, 362.79 -1.36" stroke="#1e1e1e" stroke-width="2" fill="none"></path></g><g transform="translate(705.1785714285725 352.5) rotate(0 181.875 50)"><path d="M350.02 20.13 C355.19 13.74, 357.81 8.93, 362.79 -1.36 M350.02 20.13 C353.38 13.77, 357.05 7.94, 362.79 -1.36" stroke="#1e1e1e" stroke-width="2" fill="none"></path></g><g transform="translate(705.1785714285725 352.5) rotate(0 181.875 50)"><path d="M339.19 6.89 C347.03 3.95, 352.43 2.55, 362.79 -1.36 M339.19 6.89 C345.59 4.35, 352.41 2.37, 362.79 -1.36" stroke="#1e1e1e" stroke-width="2" fill="none"></path></g></g><mask></mask><g stroke-linecap="round"><g transform="translate(1055.6973990615388 175.3002444965532) rotate(0 -428.9418532606669 -54.74483112186135)"><path d="M0.67 -0.96 C-110.1 -18.94, -522.41 -108.16, -665.62 -108.82 C-808.82 -109.48, -826.67 -22.14, -858.55 -4.93 M-0.43 1.15 C-110.75 -17.09, -520.2 -109.82, -663.4 -110.59 C-806.61 -111.37, -827.54 -21.15, -859.67 -3.49" stroke="#1e1e1e" stroke-width="2" fill="none"></path></g><g transform="translate(1055.6973990615388 175.3002444965532) rotate(0 -428.9418532606669 -54.74483112186135)"><path d="M-849.69 -26.42 C-853.65 -22.97, -853.09 -17.52, -859.67 -3.49 M-849.69 -26.42 C-852.89 -18.77, -856.07 -11.07, -859.67 -3.49" stroke="#1e1e1e" stroke-width="2" fill="none"></path></g><g transform="translate(1055.6973990615388 175.3002444965532) rotate(0 -428.9418532606669 -54.74483112186135)"><path d="M-837.29 -14.64 C-843.84 -13.68, -845.98 -10.79, -859.67 -3.49 M-837.29 -14.64 C-844.54 -10.79, -851.66 -6.84, -859.67 -3.49" stroke="#1e1e1e" stroke-width="2" fill="none"></path></g></g><mask></mask><g stroke-linecap="round"><g transform="translate(1282.3752964474206 255.05751002335455) rotate(0 90.16795714188265 -37.35529653021513)"><path d="M-0.6 -1.19 C29.69 -6.19, 165.35 -17.26, 180.81 -29.65 C196.26 -42.04, 107.08 -67.97, 92.12 -75.54 M1.29 0.8 C31.54 -4.03, 165.04 -15.55, 180.11 -28.12 C195.17 -40.7, 106.54 -66.99, 91.71 -74.66" stroke="#1e1e1e" stroke-width="2" fill="none"></path></g><g transform="translate(1282.3752964474206 255.05751002335455) rotate(0 90.16795714188265 -37.35529653021513)"><path d="M116.7 -74.13 C109.15 -73.59, 105.54 -73.38, 91.71 -74.66 M116.7 -74.13 C110.59 -73.93, 104.95 -73.69, 91.71 -74.66" stroke="#1e1e1e" stroke-width="2" fill="none"></path></g><g transform="translate(1282.3752964474206 255.05751002335455) rotate(0 90.16795714188265 -37.35529653021513)"><path d="M110.51 -58.19 C104.29 -61.16, 102.06 -64.5, 91.71 -74.66 M110.51 -58.19 C105.88 -61.65, 101.67 -65.09, 91.71 -74.66" stroke="#1e1e1e" stroke-width="2" fill="none"></path></g></g><mask></mask></svg>